<svg width="32" height="46" viewBox="0 0 32 46" fill="none" xmlns="http://www.w3.org/2000/svg">
<mask id="path-1-inside-1_1_3" fill="white">
<path d="M16 0C14.426 0 13.416 1.702 12.856 3.30913C12.3018 4.96882 12.0095 6.78404 12 8.625V19.2366L8 22.1116V21.5625C8 21.1813 7.89464 20.8156 7.70711 20.546C7.51957 20.2765 7.26522 20.125 7 20.125H5C4.73478 20.125 4.48043 20.2765 4.29289 20.546C4.10536 20.8156 4 21.1813 4 21.5625V24.9866L1.66 26.6685C1.16127 27.0264 0.741768 27.577 0.448556 28.2585C0.155345 28.94 1.883e-05 29.7254 0 30.5268L0 34.5C6.682e-05 34.7087 0.0317354 34.9148 0.0928058 35.1041C0.153876 35.2934 0.242884 35.4613 0.353646 35.5962C0.464409 35.7311 0.594269 35.8297 0.734208 35.8851C0.874146 35.9406 1.02081 35.9516 1.164 35.9174L4.426 35.1354L5.052 37.8292C5.11868 38.1148 5.24606 38.363 5.41616 38.5388C5.58626 38.7146 5.79049 38.8092 6 38.8092C6.20951 38.8092 6.41374 38.7146 6.58384 38.5388C6.75394 38.363 6.88132 38.1148 6.948 37.8292L7.758 34.339L12.178 33.2781L12.928 39.7555L10.292 43.5447C10.1518 43.7458 10.0563 44.0022 10.0175 44.2814C9.97879 44.5605 9.9986 44.85 10.0744 45.113C10.1503 45.3759 10.2787 45.6006 10.4435 45.7586C10.6083 45.9165 10.802 46.0005 11 46H21C21.198 46.0005 21.3917 45.9165 21.5565 45.7586C21.7213 45.6006 21.8497 45.3759 21.9256 45.113C22.0014 44.85 22.0212 44.5605 21.9825 44.2814C21.9437 44.0022 21.8482 43.7458 21.708 43.5447L19.072 39.7555L19.822 33.2781L24.242 34.339L25.052 37.8292C25.1187 38.1148 25.2461 38.363 25.4162 38.5388C25.5863 38.7146 25.7905 38.8092 26 38.8092C26.2095 38.8092 26.4137 38.7146 26.5838 38.5388C26.7539 38.363 26.8813 38.1148 26.948 37.8292L27.574 35.1354L30.834 35.9174C30.9773 35.9521 31.1242 35.9414 31.2644 35.8862C31.4046 35.8309 31.5347 35.7324 31.6457 35.5975C31.7567 35.4626 31.8459 35.2945 31.9071 35.1049C31.9683 34.9154 32 34.709 32 34.5V30.5268C32 29.7254 31.8447 28.94 31.5514 28.2585C31.2582 27.577 30.8387 27.0264 30.34 26.6685L28 24.9866V21.5625C28 21.1813 27.8946 20.8156 27.7071 20.546C27.5196 20.2765 27.2652 20.125 27 20.125H25C24.7348 20.125 24.4804 20.2765 24.2929 20.546C24.1054 20.8156 24 21.1813 24 21.5625V22.1116L20 19.2366V8.625C20 6.992 19.72 4.97088 19.144 3.30913C18.584 1.69913 17.574 0 16 0ZM14 8.625C14 7.383 14.22 5.81037 14.644 4.59712C15.084 3.33212 15.574 2.875 16 2.875C16.426 2.875 16.916 3.32925 17.356 4.59712C17.778 5.8075 18 7.38588 18 8.625V20.125C18 20.3917 18.0516 20.6532 18.1491 20.8802C18.2466 21.1071 18.3861 21.2906 18.552 21.4101L29.448 29.2416C29.6139 29.3611 29.7534 29.5446 29.8509 29.7716C29.9484 29.9985 30 30.26 30 30.5268V32.8037L19.164 30.2076C18.9028 30.1452 18.6351 30.2343 18.4195 30.4552C18.2039 30.6762 18.0581 31.0111 18.014 31.3864L17.014 40.0114C16.9875 40.2377 16.9991 40.4699 17.0478 40.6885C17.0965 40.907 17.1809 41.1057 17.294 41.2678L18.586 43.125H13.414L14.708 41.2678C14.8208 41.106 14.905 40.9078 14.9537 40.6898C15.0024 40.4718 15.0142 40.2401 14.988 40.0143L13.988 31.3893C13.9664 31.2029 13.9195 31.0244 13.8499 30.8642C13.7803 30.7039 13.6894 30.5649 13.5824 30.4551C13.4754 30.3454 13.3544 30.267 13.2263 30.2246C13.0983 30.1821 12.9656 30.1763 12.836 30.2076L2 32.8037V30.5268C2.00001 30.26 2.05164 29.9985 2.14913 29.7716C2.24661 29.5446 2.38611 29.3611 2.552 29.2416L13.448 21.4101C13.6139 21.2906 13.7534 21.1071 13.8509 20.8802C13.9484 20.6532 14 20.3917 14 20.125V8.625Z"/>
</mask>
<path d="M16 0C14.426 0 13.416 1.702 12.856 3.30913C12.3018 4.96882 12.0095 6.78404 12 8.625V19.2366L8 22.1116V21.5625C8 21.1813 7.89464 20.8156 7.70711 20.546C7.51957 20.2765 7.26522 20.125 7 20.125H5C4.73478 20.125 4.48043 20.2765 4.29289 20.546C4.10536 20.8156 4 21.1813 4 21.5625V24.9866L1.66 26.6685C1.16127 27.0264 0.741768 27.577 0.448556 28.2585C0.155345 28.94 1.883e-05 29.7254 0 30.5268L0 34.5C6.682e-05 34.7087 0.0317354 34.9148 0.0928058 35.1041C0.153876 35.2934 0.242884 35.4613 0.353646 35.5962C0.464409 35.7311 0.594269 35.8297 0.734208 35.8851C0.874146 35.9406 1.02081 35.9516 1.164 35.9174L4.426 35.1354L5.052 37.8292C5.11868 38.1148 5.24606 38.363 5.41616 38.5388C5.58626 38.7146 5.79049 38.8092 6 38.8092C6.20951 38.8092 6.41374 38.7146 6.58384 38.5388C6.75394 38.363 6.88132 38.1148 6.948 37.8292L7.758 34.339L12.178 33.2781L12.928 39.7555L10.292 43.5447C10.1518 43.7458 10.0563 44.0022 10.0175 44.2814C9.97879 44.5605 9.9986 44.85 10.0744 45.113C10.1503 45.3759 10.2787 45.6006 10.4435 45.7586C10.6083 45.9165 10.802 46.0005 11 46H21C21.198 46.0005 21.3917 45.9165 21.5565 45.7586C21.7213 45.6006 21.8497 45.3759 21.9256 45.113C22.0014 44.85 22.0212 44.5605 21.9825 44.2814C21.9437 44.0022 21.8482 43.7458 21.708 43.5447L19.072 39.7555L19.822 33.2781L24.242 34.339L25.052 37.8292C25.1187 38.1148 25.2461 38.363 25.4162 38.5388C25.5863 38.7146 25.7905 38.8092 26 38.8092C26.2095 38.8092 26.4137 38.7146 26.5838 38.5388C26.7539 38.363 26.8813 38.1148 26.948 37.8292L27.574 35.1354L30.834 35.9174C30.9773 35.9521 31.1242 35.9414 31.2644 35.8862C31.4046 35.8309 31.5347 35.7324 31.6457 35.5975C31.7567 35.4626 31.8459 35.2945 31.9071 35.1049C31.9683 34.9154 32 34.709 32 34.5V30.5268C32 29.7254 31.8447 28.94 31.5514 28.2585C31.2582 27.577 30.8387 27.0264 30.34 26.6685L28 24.9866V21.5625C28 21.1813 27.8946 20.8156 27.7071 20.546C27.5196 20.2765 27.2652 20.125 27 20.125H25C24.7348 20.125 24.4804 20.2765 24.2929 20.546C24.1054 20.8156 24 21.1813 24 21.5625V22.1116L20 19.2366V8.625C20 6.992 19.72 4.97088 19.144 3.30913C18.584 1.69913 17.574 0 16 0ZM14 8.625C14 7.383 14.22 5.81037 14.644 4.59712C15.084 3.33212 15.574 2.875 16 2.875C16.426 2.875 16.916 3.32925 17.356 4.59712C17.778 5.8075 18 7.38588 18 8.625V20.125C18 20.3917 18.0516 20.6532 18.1491 20.8802C18.2466 21.1071 18.3861 21.2906 18.552 21.4101L29.448 29.2416C29.6139 29.3611 29.7534 29.5446 29.8509 29.7716C29.9484 29.9985 30 30.26 30 30.5268V32.8037L19.164 30.2076C18.9028 30.1452 18.6351 30.2343 18.4195 30.4552C18.2039 30.6762 18.0581 31.0111 18.014 31.3864L17.014 40.0114C16.9875 40.2377 16.9991 40.4699 17.0478 40.6885C17.0965 40.907 17.1809 41.1057 17.294 41.2678L18.586 43.125H13.414L14.708 41.2678C14.8208 41.106 14.905 40.9078 14.9537 40.6898C15.0024 40.4718 15.0142 40.2401 14.988 40.0143L13.988 31.3893C13.9664 31.2029 13.9195 31.0244 13.8499 30.8642C13.7803 30.7039 13.6894 30.5649 13.5824 30.4551C13.4754 30.3454 13.3544 30.267 13.2263 30.2246C13.0983 30.1821 12.9656 30.1763 12.836 30.2076L2 32.8037V30.5268C2.00001 30.26 2.05164 29.9985 2.14913 29.7716C2.24661 29.5446 2.38611 29.3611 2.552 29.2416L13.448 21.4101C13.6139 21.2906 13.7534 21.1071 13.8509 20.8802C13.9484 20.6532 14 20.3917 14 20.125V8.625Z" stroke="#198754" stroke-width="2" mask="url(#path-1-inside-1_1_3)"/>
</svg>
